<mxfile host="app.diagrams.net" modified="2021-12-27T13:03:35.536Z" agent="5.0 (Windows NT 10.0; Win64; x64) AppleWebKit/537.36 (KHTML, like Gecko) Chrome/96.0.4664.110 Safari/537.36" etag="HcF-S2eD4cOMnHghqhgp" version="16.1.0" type="github">
  <diagram id="jbGArsJpMYjb_4ZU7Hdk" name="Page-1">
    <mxGraphModel dx="593" dy="286" grid="0" gridSize="10" guides="1" tooltips="1" connect="1" arrows="1" fold="1" page="1" pageScale="1" pageWidth="827" pageHeight="1169" math="0" shadow="0">
      <root>
        <mxCell id="0" />
        <mxCell id="1" parent="0" />
        <mxCell id="_2QDHl5ZUeaQQuLaKa91-1" value="" style="whiteSpace=wrap;html=1;aspect=fixed;fillColor=#dae8fc;strokeColor=#6c8ebf;" parent="1" vertex="1">
          <mxGeometry x="60" y="35" width="80" height="80" as="geometry" />
        </mxCell>
        <mxCell id="_2QDHl5ZUeaQQuLaKa91-2" value="" style="rounded=1;whiteSpace=wrap;html=1;fillColor=#fff2cc;strokeColor=#d6b656;" parent="1" vertex="1">
          <mxGeometry x="159" y="65" width="114" height="50" as="geometry" />
        </mxCell>
        <mxCell id="_2QDHl5ZUeaQQuLaKa91-3" value="Table" style="shape=table;startSize=30;container=1;collapsible=0;childLayout=tableLayout;fontStyle=1;align=center;pointerEvents=1;" parent="1" vertex="1">
          <mxGeometry x="291" y="56" width="180" height="150" as="geometry" />
        </mxCell>
        <mxCell id="_2QDHl5ZUeaQQuLaKa91-4" value="" style="shape=partialRectangle;html=1;whiteSpace=wrap;collapsible=0;dropTarget=0;pointerEvents=0;fillColor=none;top=0;left=0;bottom=0;right=0;points=[[0,0.5],[1,0.5]];portConstraint=eastwest;" parent="_2QDHl5ZUeaQQuLaKa91-3" vertex="1">
          <mxGeometry y="30" width="180" height="40" as="geometry" />
        </mxCell>
        <mxCell id="_2QDHl5ZUeaQQuLaKa91-5" value="" style="shape=partialRectangle;html=1;whiteSpace=wrap;connectable=0;fillColor=none;top=0;left=0;bottom=0;right=0;overflow=hidden;pointerEvents=1;" parent="_2QDHl5ZUeaQQuLaKa91-4" vertex="1">
          <mxGeometry width="60" height="40" as="geometry">
            <mxRectangle width="60" height="40" as="alternateBounds" />
          </mxGeometry>
        </mxCell>
        <mxCell id="_2QDHl5ZUeaQQuLaKa91-6" value="" style="shape=partialRectangle;html=1;whiteSpace=wrap;connectable=0;fillColor=none;top=0;left=0;bottom=0;right=0;overflow=hidden;pointerEvents=1;" parent="_2QDHl5ZUeaQQuLaKa91-4" vertex="1">
          <mxGeometry x="60" width="60" height="40" as="geometry">
            <mxRectangle width="60" height="40" as="alternateBounds" />
          </mxGeometry>
        </mxCell>
        <mxCell id="_2QDHl5ZUeaQQuLaKa91-7" value="" style="shape=partialRectangle;html=1;whiteSpace=wrap;connectable=0;fillColor=none;top=0;left=0;bottom=0;right=0;overflow=hidden;pointerEvents=1;" parent="_2QDHl5ZUeaQQuLaKa91-4" vertex="1">
          <mxGeometry x="120" width="60" height="40" as="geometry">
            <mxRectangle width="60" height="40" as="alternateBounds" />
          </mxGeometry>
        </mxCell>
        <mxCell id="_2QDHl5ZUeaQQuLaKa91-8" value="" style="shape=partialRectangle;html=1;whiteSpace=wrap;collapsible=0;dropTarget=0;pointerEvents=0;fillColor=none;top=0;left=0;bottom=0;right=0;points=[[0,0.5],[1,0.5]];portConstraint=eastwest;" parent="_2QDHl5ZUeaQQuLaKa91-3" vertex="1">
          <mxGeometry y="70" width="180" height="40" as="geometry" />
        </mxCell>
        <mxCell id="_2QDHl5ZUeaQQuLaKa91-9" value="" style="shape=partialRectangle;html=1;whiteSpace=wrap;connectable=0;fillColor=none;top=0;left=0;bottom=0;right=0;overflow=hidden;pointerEvents=1;" parent="_2QDHl5ZUeaQQuLaKa91-8" vertex="1">
          <mxGeometry width="60" height="40" as="geometry">
            <mxRectangle width="60" height="40" as="alternateBounds" />
          </mxGeometry>
        </mxCell>
        <mxCell id="_2QDHl5ZUeaQQuLaKa91-10" value="" style="shape=partialRectangle;html=1;whiteSpace=wrap;connectable=0;fillColor=none;top=0;left=0;bottom=0;right=0;overflow=hidden;pointerEvents=1;" parent="_2QDHl5ZUeaQQuLaKa91-8" vertex="1">
          <mxGeometry x="60" width="60" height="40" as="geometry">
            <mxRectangle width="60" height="40" as="alternateBounds" />
          </mxGeometry>
        </mxCell>
        <mxCell id="_2QDHl5ZUeaQQuLaKa91-11" value="" style="shape=partialRectangle;html=1;whiteSpace=wrap;connectable=0;fillColor=none;top=0;left=0;bottom=0;right=0;overflow=hidden;pointerEvents=1;" parent="_2QDHl5ZUeaQQuLaKa91-8" vertex="1">
          <mxGeometry x="120" width="60" height="40" as="geometry">
            <mxRectangle width="60" height="40" as="alternateBounds" />
          </mxGeometry>
        </mxCell>
        <mxCell id="_2QDHl5ZUeaQQuLaKa91-12" value="" style="shape=partialRectangle;html=1;whiteSpace=wrap;collapsible=0;dropTarget=0;pointerEvents=0;fillColor=none;top=0;left=0;bottom=0;right=0;points=[[0,0.5],[1,0.5]];portConstraint=eastwest;" parent="_2QDHl5ZUeaQQuLaKa91-3" vertex="1">
          <mxGeometry y="110" width="180" height="40" as="geometry" />
        </mxCell>
        <mxCell id="_2QDHl5ZUeaQQuLaKa91-13" value="" style="shape=partialRectangle;html=1;whiteSpace=wrap;connectable=0;fillColor=none;top=0;left=0;bottom=0;right=0;overflow=hidden;pointerEvents=1;" parent="_2QDHl5ZUeaQQuLaKa91-12" vertex="1">
          <mxGeometry width="60" height="40" as="geometry">
            <mxRectangle width="60" height="40" as="alternateBounds" />
          </mxGeometry>
        </mxCell>
        <mxCell id="_2QDHl5ZUeaQQuLaKa91-14" value="" style="shape=partialRectangle;html=1;whiteSpace=wrap;connectable=0;fillColor=none;top=0;left=0;bottom=0;right=0;overflow=hidden;pointerEvents=1;" parent="_2QDHl5ZUeaQQuLaKa91-12" vertex="1">
          <mxGeometry x="60" width="60" height="40" as="geometry">
            <mxRectangle width="60" height="40" as="alternateBounds" />
          </mxGeometry>
        </mxCell>
        <mxCell id="_2QDHl5ZUeaQQuLaKa91-15" value="" style="shape=partialRectangle;html=1;whiteSpace=wrap;connectable=0;fillColor=none;top=0;left=0;bottom=0;right=0;overflow=hidden;pointerEvents=1;" parent="_2QDHl5ZUeaQQuLaKa91-12" vertex="1">
          <mxGeometry x="120" width="60" height="40" as="geometry">
            <mxRectangle width="60" height="40" as="alternateBounds" />
          </mxGeometry>
        </mxCell>
        <mxCell id="GuAWNQmygI9kBjU7lxuV-5" style="edgeStyle=orthogonalEdgeStyle;rounded=0;orthogonalLoop=1;jettySize=auto;html=1;exitX=1;exitY=0.5;exitDx=0;exitDy=0;entryX=0;entryY=0.5;entryDx=0;entryDy=0;" edge="1" parent="1" source="GuAWNQmygI9kBjU7lxuV-1" target="GuAWNQmygI9kBjU7lxuV-2">
          <mxGeometry relative="1" as="geometry" />
        </mxCell>
        <mxCell id="GuAWNQmygI9kBjU7lxuV-1" value="n1" style="rounded=0;whiteSpace=wrap;html=1;" vertex="1" parent="1">
          <mxGeometry x="60" y="285" width="41" height="27" as="geometry" />
        </mxCell>
        <mxCell id="GuAWNQmygI9kBjU7lxuV-6" style="edgeStyle=orthogonalEdgeStyle;rounded=0;orthogonalLoop=1;jettySize=auto;html=1;exitX=1;exitY=0.5;exitDx=0;exitDy=0;entryX=0;entryY=0.5;entryDx=0;entryDy=0;" edge="1" parent="1" source="GuAWNQmygI9kBjU7lxuV-2" target="GuAWNQmygI9kBjU7lxuV-3">
          <mxGeometry relative="1" as="geometry" />
        </mxCell>
        <mxCell id="GuAWNQmygI9kBjU7lxuV-2" value="n2" style="rounded=0;whiteSpace=wrap;html=1;" vertex="1" parent="1">
          <mxGeometry x="136" y="285" width="41" height="27" as="geometry" />
        </mxCell>
        <mxCell id="GuAWNQmygI9kBjU7lxuV-7" style="edgeStyle=orthogonalEdgeStyle;rounded=0;orthogonalLoop=1;jettySize=auto;html=1;exitX=1;exitY=0.5;exitDx=0;exitDy=0;entryX=0;entryY=0.5;entryDx=0;entryDy=0;" edge="1" parent="1" source="GuAWNQmygI9kBjU7lxuV-3" target="GuAWNQmygI9kBjU7lxuV-4">
          <mxGeometry relative="1" as="geometry" />
        </mxCell>
        <mxCell id="GuAWNQmygI9kBjU7lxuV-3" value="n3" style="rounded=0;whiteSpace=wrap;html=1;" vertex="1" parent="1">
          <mxGeometry x="206" y="285" width="41" height="27" as="geometry" />
        </mxCell>
        <mxCell id="GuAWNQmygI9kBjU7lxuV-4" value="n4" style="rounded=0;whiteSpace=wrap;html=1;" vertex="1" parent="1">
          <mxGeometry x="275" y="285" width="41" height="27" as="geometry" />
        </mxCell>
        <mxCell id="GuAWNQmygI9kBjU7lxuV-10" value="" style="group" vertex="1" connectable="0" parent="1">
          <mxGeometry x="21" y="319" width="24" height="42" as="geometry" />
        </mxCell>
        <mxCell id="GuAWNQmygI9kBjU7lxuV-8" value="" style="endArrow=classic;html=1;rounded=0;" edge="1" parent="GuAWNQmygI9kBjU7lxuV-10">
          <mxGeometry width="50" height="50" relative="1" as="geometry">
            <mxPoint x="11.710000000000008" y="22" as="sourcePoint" />
            <mxPoint x="11.710000000000008" as="targetPoint" />
          </mxGeometry>
        </mxCell>
        <mxCell id="GuAWNQmygI9kBjU7lxuV-9" value="per" style="text;html=1;strokeColor=none;fillColor=none;align=center;verticalAlign=middle;whiteSpace=wrap;rounded=0;" vertex="1" parent="GuAWNQmygI9kBjU7lxuV-10">
          <mxGeometry y="25" width="24" height="17" as="geometry" />
        </mxCell>
        <mxCell id="GuAWNQmygI9kBjU7lxuV-11" value="" style="group" vertex="1" connectable="0" parent="1">
          <mxGeometry x="68.5" y="321" width="24" height="42" as="geometry" />
        </mxCell>
        <mxCell id="GuAWNQmygI9kBjU7lxuV-12" value="" style="endArrow=classic;html=1;rounded=0;" edge="1" parent="GuAWNQmygI9kBjU7lxuV-11">
          <mxGeometry width="50" height="50" relative="1" as="geometry">
            <mxPoint x="11.710000000000008" y="22" as="sourcePoint" />
            <mxPoint x="11.710000000000008" as="targetPoint" />
          </mxGeometry>
        </mxCell>
        <mxCell id="GuAWNQmygI9kBjU7lxuV-13" value="cur" style="text;html=1;strokeColor=none;fillColor=none;align=center;verticalAlign=middle;whiteSpace=wrap;rounded=0;" vertex="1" parent="GuAWNQmygI9kBjU7lxuV-11">
          <mxGeometry y="25" width="24" height="17" as="geometry" />
        </mxCell>
        <mxCell id="GuAWNQmygI9kBjU7lxuV-14" value="" style="group" vertex="1" connectable="0" parent="1">
          <mxGeometry x="144" y="321" width="24" height="42" as="geometry" />
        </mxCell>
        <mxCell id="GuAWNQmygI9kBjU7lxuV-15" value="" style="endArrow=classic;html=1;rounded=0;" edge="1" parent="GuAWNQmygI9kBjU7lxuV-14">
          <mxGeometry width="50" height="50" relative="1" as="geometry">
            <mxPoint x="11.710000000000008" y="22" as="sourcePoint" />
            <mxPoint x="11.710000000000008" as="targetPoint" />
          </mxGeometry>
        </mxCell>
        <mxCell id="GuAWNQmygI9kBjU7lxuV-16" value="next" style="text;html=1;strokeColor=none;fillColor=none;align=center;verticalAlign=middle;whiteSpace=wrap;rounded=0;" vertex="1" parent="GuAWNQmygI9kBjU7lxuV-14">
          <mxGeometry y="25" width="24" height="17" as="geometry" />
        </mxCell>
        <mxCell id="GuAWNQmygI9kBjU7lxuV-33" style="edgeStyle=orthogonalEdgeStyle;rounded=0;orthogonalLoop=1;jettySize=auto;html=1;exitX=0;exitY=0.5;exitDx=0;exitDy=0;" edge="1" parent="1" source="GuAWNQmygI9kBjU7lxuV-18">
          <mxGeometry relative="1" as="geometry">
            <mxPoint x="55.228567940848166" y="421.42857142857144" as="targetPoint" />
          </mxGeometry>
        </mxCell>
        <mxCell id="GuAWNQmygI9kBjU7lxuV-18" value="n1" style="rounded=0;whiteSpace=wrap;html=1;" vertex="1" parent="1">
          <mxGeometry x="84" y="408" width="41" height="27" as="geometry" />
        </mxCell>
        <mxCell id="GuAWNQmygI9kBjU7lxuV-19" style="edgeStyle=orthogonalEdgeStyle;rounded=0;orthogonalLoop=1;jettySize=auto;html=1;exitX=1;exitY=0.5;exitDx=0;exitDy=0;entryX=0;entryY=0.5;entryDx=0;entryDy=0;" edge="1" parent="1" source="GuAWNQmygI9kBjU7lxuV-20" target="GuAWNQmygI9kBjU7lxuV-22">
          <mxGeometry relative="1" as="geometry" />
        </mxCell>
        <mxCell id="GuAWNQmygI9kBjU7lxuV-20" value="n2" style="rounded=0;whiteSpace=wrap;html=1;" vertex="1" parent="1">
          <mxGeometry x="160" y="408" width="41" height="27" as="geometry" />
        </mxCell>
        <mxCell id="GuAWNQmygI9kBjU7lxuV-21" style="edgeStyle=orthogonalEdgeStyle;rounded=0;orthogonalLoop=1;jettySize=auto;html=1;exitX=1;exitY=0.5;exitDx=0;exitDy=0;entryX=0;entryY=0.5;entryDx=0;entryDy=0;" edge="1" parent="1" source="GuAWNQmygI9kBjU7lxuV-22" target="GuAWNQmygI9kBjU7lxuV-23">
          <mxGeometry relative="1" as="geometry" />
        </mxCell>
        <mxCell id="GuAWNQmygI9kBjU7lxuV-22" value="n3" style="rounded=0;whiteSpace=wrap;html=1;" vertex="1" parent="1">
          <mxGeometry x="230" y="408" width="41" height="27" as="geometry" />
        </mxCell>
        <mxCell id="GuAWNQmygI9kBjU7lxuV-23" value="n4" style="rounded=0;whiteSpace=wrap;html=1;" vertex="1" parent="1">
          <mxGeometry x="299" y="408" width="41" height="27" as="geometry" />
        </mxCell>
        <mxCell id="GuAWNQmygI9kBjU7lxuV-24" value="" style="group" vertex="1" connectable="0" parent="1">
          <mxGeometry x="90" y="440" width="24" height="42" as="geometry" />
        </mxCell>
        <mxCell id="GuAWNQmygI9kBjU7lxuV-25" value="" style="endArrow=classic;html=1;rounded=0;" edge="1" parent="GuAWNQmygI9kBjU7lxuV-24">
          <mxGeometry width="50" height="50" relative="1" as="geometry">
            <mxPoint x="11.710000000000008" y="22" as="sourcePoint" />
            <mxPoint x="11.710000000000008" as="targetPoint" />
            <Array as="points">
              <mxPoint x="12" y="14" />
            </Array>
          </mxGeometry>
        </mxCell>
        <mxCell id="GuAWNQmygI9kBjU7lxuV-26" value="per" style="text;html=1;strokeColor=none;fillColor=none;align=center;verticalAlign=middle;whiteSpace=wrap;rounded=0;" vertex="1" parent="GuAWNQmygI9kBjU7lxuV-24">
          <mxGeometry y="25" width="24" height="17" as="geometry" />
        </mxCell>
        <mxCell id="GuAWNQmygI9kBjU7lxuV-27" value="" style="group" vertex="1" connectable="0" parent="1">
          <mxGeometry x="155" y="446" width="24" height="33" as="geometry" />
        </mxCell>
        <mxCell id="GuAWNQmygI9kBjU7lxuV-28" value="" style="endArrow=classic;html=1;rounded=0;" edge="1" parent="GuAWNQmygI9kBjU7lxuV-27">
          <mxGeometry width="50" height="50" relative="1" as="geometry">
            <mxPoint x="11.710000000000008" y="17.285714285714285" as="sourcePoint" />
            <mxPoint x="11.710000000000008" as="targetPoint" />
          </mxGeometry>
        </mxCell>
        <mxCell id="GuAWNQmygI9kBjU7lxuV-29" value="cur" style="text;html=1;strokeColor=none;fillColor=none;align=center;verticalAlign=middle;whiteSpace=wrap;rounded=0;" vertex="1" parent="GuAWNQmygI9kBjU7lxuV-27">
          <mxGeometry y="19.642857142857142" width="24" height="13.357142857142858" as="geometry" />
        </mxCell>
        <mxCell id="GuAWNQmygI9kBjU7lxuV-30" value="" style="group" vertex="1" connectable="0" parent="1">
          <mxGeometry x="177" y="442" width="24" height="42" as="geometry" />
        </mxCell>
        <mxCell id="GuAWNQmygI9kBjU7lxuV-31" value="" style="endArrow=classic;html=1;rounded=0;" edge="1" parent="GuAWNQmygI9kBjU7lxuV-30">
          <mxGeometry width="50" height="50" relative="1" as="geometry">
            <mxPoint x="11.710000000000008" y="22" as="sourcePoint" />
            <mxPoint x="11.710000000000008" as="targetPoint" />
          </mxGeometry>
        </mxCell>
        <mxCell id="GuAWNQmygI9kBjU7lxuV-32" value="next" style="text;html=1;strokeColor=none;fillColor=none;align=center;verticalAlign=middle;whiteSpace=wrap;rounded=0;" vertex="1" parent="GuAWNQmygI9kBjU7lxuV-30">
          <mxGeometry y="25" width="24" height="17" as="geometry" />
        </mxCell>
        <mxCell id="GuAWNQmygI9kBjU7lxuV-34" value="Null" style="text;html=1;strokeColor=none;fillColor=none;align=center;verticalAlign=middle;whiteSpace=wrap;rounded=0;" vertex="1" parent="1">
          <mxGeometry x="21" y="411" width="29" height="24" as="geometry" />
        </mxCell>
        <mxCell id="GuAWNQmygI9kBjU7lxuV-36" style="edgeStyle=orthogonalEdgeStyle;rounded=0;orthogonalLoop=1;jettySize=auto;html=1;exitX=0;exitY=0.5;exitDx=0;exitDy=0;" edge="1" parent="1" source="GuAWNQmygI9kBjU7lxuV-37">
          <mxGeometry relative="1" as="geometry">
            <mxPoint x="63.728567940848166" y="522.4285714285714" as="targetPoint" />
          </mxGeometry>
        </mxCell>
        <mxCell id="GuAWNQmygI9kBjU7lxuV-37" value="n1" style="rounded=0;whiteSpace=wrap;html=1;" vertex="1" parent="1">
          <mxGeometry x="92.5" y="509" width="41" height="27" as="geometry" />
        </mxCell>
        <mxCell id="GuAWNQmygI9kBjU7lxuV-55" style="edgeStyle=orthogonalEdgeStyle;rounded=0;orthogonalLoop=1;jettySize=auto;html=1;exitX=0;exitY=0.5;exitDx=0;exitDy=0;entryX=1;entryY=0.5;entryDx=0;entryDy=0;" edge="1" parent="1" source="GuAWNQmygI9kBjU7lxuV-39" target="GuAWNQmygI9kBjU7lxuV-37">
          <mxGeometry relative="1" as="geometry" />
        </mxCell>
        <mxCell id="GuAWNQmygI9kBjU7lxuV-39" value="n2" style="rounded=0;whiteSpace=wrap;html=1;" vertex="1" parent="1">
          <mxGeometry x="168.5" y="509" width="41" height="27" as="geometry" />
        </mxCell>
        <mxCell id="GuAWNQmygI9kBjU7lxuV-40" style="edgeStyle=orthogonalEdgeStyle;rounded=0;orthogonalLoop=1;jettySize=auto;html=1;exitX=1;exitY=0.5;exitDx=0;exitDy=0;entryX=0;entryY=0.5;entryDx=0;entryDy=0;" edge="1" parent="1" source="GuAWNQmygI9kBjU7lxuV-41" target="GuAWNQmygI9kBjU7lxuV-42">
          <mxGeometry relative="1" as="geometry" />
        </mxCell>
        <mxCell id="GuAWNQmygI9kBjU7lxuV-41" value="n3" style="rounded=0;whiteSpace=wrap;html=1;" vertex="1" parent="1">
          <mxGeometry x="238.5" y="509" width="41" height="27" as="geometry" />
        </mxCell>
        <mxCell id="GuAWNQmygI9kBjU7lxuV-42" value="n4" style="rounded=0;whiteSpace=wrap;html=1;" vertex="1" parent="1">
          <mxGeometry x="307.5" y="509" width="41" height="27" as="geometry" />
        </mxCell>
        <mxCell id="GuAWNQmygI9kBjU7lxuV-43" value="" style="group" vertex="1" connectable="0" parent="1">
          <mxGeometry x="163" y="542.25" width="24" height="42" as="geometry" />
        </mxCell>
        <mxCell id="GuAWNQmygI9kBjU7lxuV-44" value="" style="endArrow=classic;html=1;rounded=0;" edge="1" parent="GuAWNQmygI9kBjU7lxuV-43">
          <mxGeometry width="50" height="50" relative="1" as="geometry">
            <mxPoint x="11.710000000000008" y="22" as="sourcePoint" />
            <mxPoint x="11.710000000000008" as="targetPoint" />
            <Array as="points">
              <mxPoint x="12" y="14" />
            </Array>
          </mxGeometry>
        </mxCell>
        <mxCell id="GuAWNQmygI9kBjU7lxuV-45" value="per" style="text;html=1;strokeColor=none;fillColor=none;align=center;verticalAlign=middle;whiteSpace=wrap;rounded=0;" vertex="1" parent="GuAWNQmygI9kBjU7lxuV-43">
          <mxGeometry y="25" width="24" height="17" as="geometry" />
        </mxCell>
        <mxCell id="GuAWNQmygI9kBjU7lxuV-46" value="" style="group" vertex="1" connectable="0" parent="1">
          <mxGeometry x="271" y="545" width="24" height="36.5" as="geometry" />
        </mxCell>
        <mxCell id="GuAWNQmygI9kBjU7lxuV-47" value="" style="endArrow=classic;html=1;rounded=0;" edge="1" parent="GuAWNQmygI9kBjU7lxuV-46">
          <mxGeometry width="50" height="50" relative="1" as="geometry">
            <mxPoint x="11.710000000000008" y="19.119047619047617" as="sourcePoint" />
            <mxPoint x="11.710000000000008" as="targetPoint" />
          </mxGeometry>
        </mxCell>
        <mxCell id="GuAWNQmygI9kBjU7lxuV-48" value="cur" style="text;html=1;strokeColor=none;fillColor=none;align=center;verticalAlign=middle;whiteSpace=wrap;rounded=0;" vertex="1" parent="GuAWNQmygI9kBjU7lxuV-46">
          <mxGeometry y="21.015151515151512" width="24" height="15.484848484848484" as="geometry" />
        </mxCell>
        <mxCell id="GuAWNQmygI9kBjU7lxuV-49" value="" style="group" vertex="1" connectable="0" parent="1">
          <mxGeometry x="247" y="543" width="24" height="42" as="geometry" />
        </mxCell>
        <mxCell id="GuAWNQmygI9kBjU7lxuV-50" value="" style="endArrow=classic;html=1;rounded=0;" edge="1" parent="GuAWNQmygI9kBjU7lxuV-49">
          <mxGeometry width="50" height="50" relative="1" as="geometry">
            <mxPoint x="11.710000000000008" y="23" as="sourcePoint" />
            <mxPoint x="11.710000000000008" y="1" as="targetPoint" />
          </mxGeometry>
        </mxCell>
        <mxCell id="GuAWNQmygI9kBjU7lxuV-51" value="next" style="text;html=1;strokeColor=none;fillColor=none;align=center;verticalAlign=middle;whiteSpace=wrap;rounded=0;" vertex="1" parent="GuAWNQmygI9kBjU7lxuV-49">
          <mxGeometry y="25" width="24" height="17" as="geometry" />
        </mxCell>
        <mxCell id="GuAWNQmygI9kBjU7lxuV-52" value="Null" style="text;html=1;strokeColor=none;fillColor=none;align=center;verticalAlign=middle;whiteSpace=wrap;rounded=0;" vertex="1" parent="1">
          <mxGeometry x="29.5" y="512" width="29" height="24" as="geometry" />
        </mxCell>
      </root>
    </mxGraphModel>
  </diagram>
</mxfile>
